<svg width="74" height="74" viewBox="0 0 74 74" fill="none" xmlns="http://www.w3.org/2000/svg">
<path d="M40.8301 7.80469C35.6125 8.87422 32.1727 11.9383 30.6407 16.8957C30.077 18.7023 29.918 20.35 29.918 24.6715V28.7617H25.9868C21.6219 28.7617 21.434 28.8051 21.145 29.6289C20.8993 30.3371 20.8993 39.327 21.145 40.0352C21.4196 40.8156 21.7809 40.8879 26.1313 40.8879L29.918 40.9023V53.3176V65.7473L30.2649 66.152L30.6118 66.5566L35.8004 66.6C41.3793 66.6434 41.8997 66.6 42.1743 65.9785C42.3043 65.7039 42.3477 62.3219 42.3477 53.1875V40.7723L47.1895 40.7289C51.5977 40.6855 52.0458 40.6566 52.277 40.4254C52.5227 40.1941 52.5372 39.7605 52.5372 34.7598V29.3543L52.2047 29.0219C51.8868 28.6895 51.8579 28.6895 47.1028 28.6461L42.3188 28.6027L42.3766 24.7438C42.42 20.5957 42.4633 20.3934 43.2583 19.6418C43.8508 19.0781 44.2122 19.0203 48.2446 18.948L52.2047 18.8613L52.5516 18.4566L52.8985 18.052V13.1379V8.22383L52.5372 7.87695L52.1903 7.51563L47.1606 7.53008C42.868 7.54453 41.943 7.57344 40.8301 7.80469Z" fill="white"/>
</svg>
