<svg width="80" height="80" viewBox="0 0 80 80" fill="none" xmlns="http://www.w3.org/2000/svg">
<path d="M23.2031 14.3906C18.5625 14.875 14.1562 16.6094 10.3906 19.4375C4.95312 23.5156 1.34375 29.5312 0.296875 36.25C0.03125 37.9531 0.03125 42.0469 0.296875 43.75C1.60938 52.1719 6.84375 59.2969 14.6094 63.1719C15.9688 63.8438 19.0469 64.8906 20.625 65.2188C21.2656 65.3594 22.7969 65.5469 24.0156 65.6563C34.8594 66.5781 45.3438 60.2031 49.625 50.0938C51 46.8437 51.5469 44.25 51.6719 40.3437L51.7656 37.6562H40.0156H28.2812V42.3437V47.0312H34.4531C37.8438 47.0312 40.625 47.0625 40.625 47.1094C40.625 47.2969 40.0938 48.2344 39.4844 49.1406C37.5156 52.0781 34.75 54.2344 31.4844 55.4063C28.7969 56.3594 26.0938 56.625 23.3594 56.1719C16.8281 55.1094 11.6094 50.375 9.89062 43.9375C9.53125 42.6094 9.48438 42.1094 9.48438 40C9.48438 37.8906 9.53125 37.3906 9.89062 36.0625C11.3438 30.6406 15.3594 26.2812 20.5625 24.5312C23.2031 23.625 25.5938 23.4062 28.2812 23.8281C32.3125 24.4375 36.1875 26.625 38.6562 29.6719L39.0938 30.2031L42.3594 26.9375C44.1562 25.1406 45.625 23.5781 45.625 23.4531C45.625 23.1094 42.7031 20.3125 41.25 19.2812C35.9531 15.4687 29.5312 13.7344 23.2031 14.3906Z" fill="white"/>
<path d="M63.4375 31.7969V35.3125H59.9219H56.4062V40V44.6875H59.9219H63.4375V48.2031V51.7188H68.125H72.8125V48.2031V44.6875H76.4062H80V40V35.3125H76.4062H72.8125V31.7969V28.2812H68.125H63.4375V31.7969Z" fill="white"/>
</svg>
