<svg width="47" height="38" viewBox="0 0 47 38" fill="none" xmlns="http://www.w3.org/2000/svg">
<path d="M29.9102 0.353904C29.0153 0.55781 28.4715 0.750388 27.7012 1.13554C25.175 2.39297 23.3738 4.62461 22.6488 7.38867C22.3996 8.37422 22.309 10.2434 22.4676 11.2289L22.5696 11.784L21.5047 11.716C17.7438 11.4668 13.5977 10.1187 10.086 7.98906C8.14885 6.82226 6.73283 5.68945 4.8297 3.79765C2.80197 1.76992 2.98322 1.81523 2.4508 3.16328C1.5672 5.46289 1.48791 7.54726 2.23556 9.64297C2.8133 11.2742 4.03674 13.0527 5.2715 14.0609L5.9172 14.582H5.5547C4.89767 14.582 3.459 14.2309 2.58674 13.8457L1.70314 13.4719V14.0383C1.70314 16.032 2.75666 18.4449 4.35392 20.1102C5.53205 21.3449 6.68752 22.0812 8.3301 22.625L9.23635 22.9309L8.26213 23.0781C7.69572 23.1574 6.8008 23.2027 6.13244 23.1687C4.78439 23.1008 4.81838 22.9988 5.634 24.5621C6.5176 26.25 7.9676 27.7113 9.63283 28.5609C10.8449 29.184 11.4793 29.3879 12.7367 29.5691L13.7449 29.7164L13.3031 30.0676C13.0653 30.2602 12.5215 30.6227 12.1024 30.8832C8.81721 32.877 5.15822 33.8398 1.31798 33.7039C-0.358578 33.6359 -0.358578 33.6473 1.30666 34.5422C7.0047 37.6008 13.1559 38.5863 19.5449 37.4535C29.2078 35.743 36.8883 28.8555 40.0489 19.102C40.8985 16.4738 41.3516 13.6984 41.3516 11.127V9.62031L42.0086 9.1332C43.2207 8.21562 45.1125 6.19922 45.9395 4.91914L46.1434 4.61328L45.611 4.83984C44.4555 5.32695 41.1024 6.21054 40.9551 6.06328C40.9324 6.04062 41.2723 5.74609 41.7141 5.40625C42.9715 4.44336 44.1723 2.80078 44.6934 1.31679L44.8406 0.897654L43.4699 1.55469C42.1785 2.17773 40.6266 2.73281 39.4031 3.03867L38.8594 3.16328L38.2703 2.63086C37.0809 1.55469 35.6422 0.795701 34.0676 0.421873C32.9914 0.161326 30.9297 0.127341 29.9102 0.353904Z" fill="white"/>
</svg>
